<svg
        width="22"
        height="22"
        viewBox="0 0 22 22"
        fill="none"
        xmlns="http://www.w3.org/2000/svg"
>
    <path
            fill-rule="evenodd"
            clip-rule="evenodd"
            d="M11 21C16.5228 21 21 16.5228 21 11C21 5.47715 16.5228 1 11 1C5.47715 1 1 5.47715 1 11C1 16.5228 5.47715 21 11 21Z"
            stroke="#9CA7E7"
    />
    <path
            d="M5 8C5 9 6 9.5 7 9.5C8 9.5 9 9 9 8L8.5 13L11 13"
            stroke="#9CA7E7"
            stroke-linecap="round"
            stroke-linejoin="round"
    />
    <path
            d="M17 8C17 9 16 9.5 15 9.5C14 9.5 13 9 13 8"
            stroke="#9CA7E7"
            stroke-linecap="round"
            stroke-linejoin="round"
    />
    <path
            d="M16.9999 12C16.9999 13.9968 15.5012 18 10.9856 18C9.34622 18 8.10824 17.4703 7.19629 16.7008"
            stroke="#9CA7E7"
            stroke-linecap="round"
            stroke-linejoin="round"
    />
</svg>