<svg
        width="24"
        height="24"
        viewBox="0 0 24 24"
        fill="none"
        xmlns="http://www.w3.org/2000/svg"
>
    <rect width="24" height="24" fill="white" fill-opacity="0.01"/>
    <path
            fill-rule="evenodd"
            clip-rule="evenodd"
            d="M12 22C17.5228 22 22 17.5228 22 12C22 6.47715 17.5228 2 12 2C6.47715 2 2 6.47715 2 12C2 17.5228 6.47715 22 12 22Z"
            stroke="#FF0000"
    />
    <path
            fill-rule="evenodd"
            clip-rule="evenodd"
            d="M11.27 7H13.19L12.98 13.675H11.465L11.27 7ZM11.345 16.765C11.115 16.545 11 16.265 11 15.925C11 15.585 11.115 15.3 11.345 15.07C11.575 14.84 11.87 14.725 12.23 14.725C12.59 14.725 12.89 14.84 13.13 15.07C13.37 15.3 13.49 15.585 13.49 15.925C13.49 16.265 13.37 16.545 13.13 16.765C12.89 16.985 12.59 17.095 12.23 17.095C11.87 17.095 11.575 16.985 11.345 16.765Z"
            fill="#FF0000"
    />
</svg>