<svg
        width="24"
        height="24"
        viewBox="0 0 24 24"
        fill="none"
        xmlns="http://www.w3.org/2000/svg"
>
    <path d="M0 0H24V24H0V0Z" fill="white"/>
    <path
            fill-rule="evenodd"
            clip-rule="evenodd"
            d="M10.5 9.00195C11.5625 9.00195 12.539 9.37019 13.3088 9.986L16.2948 7H14V6H17H17.2948L17.2949 5.99996L17.2949 6H18V6.70508L18.002 6.70707L18 6.70906V7V10H17V7.70906L14.016 10.6931C14.6318 11.4629 15 12.4394 15 13.502C15 15.9872 12.9853 18.002 10.5 18.002C8.01472 18.002 6 15.9872 6 13.502C6 11.0167 8.01472 9.00195 10.5 9.00195ZM14 13.502C14 11.569 12.433 10.002 10.5 10.002C8.567 10.002 7 11.569 7 13.502C7 15.4349 8.567 17.002 10.5 17.002C12.433 17.002 14 15.4349 14 13.502Z"
            fill="#333333"
    />
</svg>